<?xml version="1.0" encoding="UTF-8"?>
<svg width="100" height="100" viewBox="0 0 100 100" xmlns="http://www.w3.org/2000/svg">
  <defs>
    <linearGradient id="gradient" x1="0%" y1="0%" x2="100%" y2="100%">
      <stop offset="0%" stop-color="#ec4899" />
      <stop offset="50%" stop-color="#a855f7" />
      <stop offset="100%" stop-color="#6366f1" />
    </linearGradient>
  </defs>
  <circle cx="50" cy="50" r="45" fill="url(#gradient)" />
  <path d="M50,20 C35,20 25,35 25,50 C25,65 35,80 50,80 C65,80 75,65 75,50 C75,35 65,20 50,20 Z M50,70 C40,70 35,60 35,50 C35,40 40,30 50,30 C60,30 65,40 65,50 C65,60 60,70 50,70 Z" fill="white" />
  <path d="M40,40 C35,45 35,55 40,60 L50,50 L40,40 Z" fill="white" />
  <path d="M60,40 C65,45 65,55 60,60 L50,50 L60,40 Z" fill="white" />
</svg>
